<?xml version="1.0" encoding="utf-8"?>
<!-- Generator: Adobe Illustrator 23.1.1, SVG Export Plug-In . SVG Version: 6.00 Build 0)  -->
<svg version="1.1" id="Layer_1" xmlns="http://www.w3.org/2000/svg" xmlns:xlink="http://www.w3.org/1999/xlink" x="0px" y="0px"
	 viewBox="0 0 360 143.6" style="enable-background:new 0 0 360 143.6;" xml:space="preserve">
<style type="text/css">
	.st0{fill:#1C122E;}
</style>
<g>
	<path class="st0" d="M59.7,72.7c-2-1.3-4.6-2.4-8.1-3.3c-2.8-0.8-5.1-1.4-5.7-1.7c-0.7-0.3-1.4-0.7-2.3-1.2c-0.8-0.4-1.2-1.1-1.2-2
		c0-1.1,0.5-2,1.7-2.8s2.7-1.2,4.6-1.2c3.5,0,6.9,1.7,10.2,5c0.1,0.1,0.3,0.2,0.4,0.2c0.2,0,0.3-0.1,0.4-0.2L68.3,52
		c0.1-0.2,0.1-0.5-0.1-0.7c-5.1-4.5-11.9-6.7-20.2-6.7c-7.7,0-14.2,2.2-19.4,6.5c-5.3,4.4-8,9.8-8,16.2c-0.1,5.3,1.4,8.9,4.4,10.9
		c2.9,2,5.6,3.3,8.2,4.1c2.7,0.8,4.4,1.3,5.5,1.7c1.3,0.5,2.2,1,3.1,1.7c0.8,0.7,1.2,1.4,1.2,2.3c0,1.2-0.6,2.3-1.8,3.2
		c-1.2,0.9-2.8,1.3-4.6,1.3c-5.2,0-9.5-2.5-12.9-7.3c-0.1-0.1-0.3-0.2-0.4-0.2l0,0c-0.2,0-0.3,0.1-0.4,0.2l-9.3,13.7
		c-0.1,0.2-0.1,0.5,0,0.6c2.8,3.4,6,5.9,9.5,7.3s8,2.1,13.3,2.1c8.1,0,15-2.3,20.5-6.7l0,0c5.5-4.5,8.3-10.3,8.4-17.1
		C65.4,79.5,63.5,75.4,59.7,72.7z"/>
	<path class="st0" d="M167.5,19.6c-0.1-0.1-0.2-0.2-0.4-0.2h-21.5c-0.3,0-0.5,0.2-0.5,0.5l-10.4,86.4c0,0.1,0,0.3,0.1,0.4
		s0.2,0.2,0.4,0.2h21.6c0.3,0,0.5-0.2,0.5-0.5L167.6,20C167.6,19.9,167.6,19.8,167.5,19.6z"/>
	<path class="st0" d="M233.6,46.4c-0.1-0.1-0.2-0.2-0.4-0.2h-21.5c-0.3,0-0.5,0.2-0.5,0.5l-0.7,5.5c-2.6-5-7.8-7.5-15.3-7.5
		c-8.4,0-15.7,3.6-21.7,10.6c-6,7.1-9.1,15.6-9.2,25.5c-0.1,8.5,1.9,15.3,6,20.3c4.1,5.1,9.9,7.6,17,7.6c6.7,0,12.7-2,16.3-5.5
		l2.3-2.3l-1.9,5.2c-0.1,0.2,0,0.3,0.1,0.5c0.1,0.1,0.3,0.2,0.4,0.2H226c0.3,0,0.5-0.2,0.5-0.5l7.1-59.6
		C233.7,46.6,233.7,46.5,233.6,46.4z M186,77.2c0.5-4.1,1.9-7.4,4.3-9.9c2.4-2.5,5.3-3.8,8.6-3.8c3.2,0,5.6,1,7.4,3.1
		c1.8,2.1,2.7,4.8,2.6,8.3c0,4.5-1.3,8.2-3.9,11.2l0,0c-2.5,3-5.5,4.4-9.2,4.4c-3.2,0-5.7-1-7.4-3.1c-1.8-2.1-2.6-5-2.5-8.5
		L186,77.2L186,77.2z"/>
	<path class="st0" d="M277.3,72.7c-2.1-1.3-4.7-2.4-8.1-3.3c-3.2-0.9-5.2-1.4-5.7-1.7c-0.7-0.3-1.4-0.7-2.3-1.2
		c-0.8-0.4-1.2-1.1-1.2-2c0-1.1,0.5-2,1.7-2.8s2.7-1.2,4.6-1.2c3.5,0,6.9,1.7,10.2,5c0.1,0.1,0.3,0.2,0.4,0.2c0.2,0,0.3-0.1,0.4-0.2
		l8.4-13.5c0.1-0.2,0.1-0.5-0.1-0.7c-5.1-4.5-11.9-6.7-20.2-6.7c-7.7,0-14.2,2.2-19.4,6.5c-5.3,4.4-8,9.8-8,16.2
		c-0.1,5.2,1.4,8.9,4.4,10.9c2.9,2,5.6,3.3,8.2,4.1c2.7,0.8,4.4,1.3,5.5,1.7c1.3,0.5,2.2,1,3.1,1.7c0.8,0.7,1.2,1.4,1.2,2.3
		c0,1.2-0.6,2.3-1.8,3.2c-1.2,0.9-2.8,1.3-4.6,1.3c-5.2,0-9.5-2.5-12.9-7.3c-0.1-0.1-0.3-0.2-0.4-0.2l0,0c-0.2,0-0.3,0.1-0.4,0.2
		L231,98.9c-0.1,0.2-0.1,0.5,0,0.6c2.8,3.4,6,5.9,9.5,7.3s8,2.1,13.3,2.1c0.1,0,0.2,0,0.3,0c8.1,0,14.9-2.2,20.4-6.7l0,0
		c5.5-4.5,8.3-10.3,8.4-17.1C282.9,79.5,281.1,75.4,277.3,72.7z"/>
	<path class="st0" d="M343.9,49.4c-3.2-3.1-7.7-4.7-13.4-4.7c-5.7,0-10.1,1.8-15,6.1c0,0,0,0-0.1,0.1l-3.3,3.9l1.3-6.8l3.3-27.9
		c0-0.1,0-0.3-0.1-0.4s-0.2-0.2-0.4-0.2h-21.5c-0.3,0-0.5,0.2-0.5,0.5l-10.4,86.4c0,0.1,0,0.3,0.1,0.4s0.2,0.2,0.4,0.2H306
		c0.3,0,0.5-0.2,0.5-0.5l3.7-30.9c0.4-3.1,0.8-5,1.1-6c0.4-1.1,0.9-2.1,1.5-2.9s1.4-1.5,2.7-2.1c1.2-0.6,2.5-0.9,3.8-0.9
		c1.9,0,3.4,0.5,4.3,1.5c1.1,1.1,1.6,2.8,1.6,5.2l-4.3,36.1c0,0.1,0,0.3,0.1,0.4s0.2,0.2,0.4,0.2H343c0.3,0,0.5-0.2,0.5-0.5
		l4.4-36.8l0.4-7.1l0,0C348.7,57,347.1,52.5,343.9,49.4z"/>
	<path class="st0" d="M129,52c-4.2-4.9-10-7.3-17.1-7.3c-6.4,0-11.5,1.8-15.1,5.4L94,53l1.5-6.1c0-0.2,0-0.3-0.1-0.5
		c-0.1-0.1-0.3-0.2-0.4-0.2H73.4c-0.3,0-0.5,0.2-0.5,0.5L63,128.6c0,0.1,0,0.3,0.1,0.4s0.2,0.2,0.4,0.2H85c0.3,0,0.5-0.2,0.5-0.5
		l3.3-28.2c2.8,5.5,7.9,8.3,15.1,8.3c0.1,0,0.1,0,0.2,0c8.6,0,15.9-3.6,21.8-10.7l0,0c5.9-7.1,8.9-16,9.1-26.5
		C135.2,63.4,133.2,56.9,129,52z M111,66.6c1.8,2.1,2.6,4.9,2.5,8.5c-0.1,4.4-1.4,8-3.9,11s-5.6,4.4-9.2,4.4c-3.2,0-5.6-0.9-7.3-2.6
		C91.3,86,90.4,83,90.5,79l0,0v-1.8c0.5-4,1.9-7.3,4.4-9.8c2.4-2.5,5.3-3.8,8.9-3.8C106.9,63.5,109.3,64.5,111,66.6z"/>
</g>
</svg>
