<svg id="Layer_1" data-name="Layer 1" xmlns="http://www.w3.org/2000/svg" viewBox="0 0 40 40"><g id="Group_770" data-name="Group 770"><g id="Group_769" data-name="Group 769"><line id="Line_541" data-name="Line 541" x1="12.97" y1="8.6" x2="21.66" y2="17.29" fill="none" stroke="#8656e6" stroke-width="1.5"/><line id="Line_542" data-name="Line 542" x1="9.72" y1="11.86" x2="18.4" y2="20.54" fill="none" stroke="#8656e6" stroke-width="1.5"/><line id="Line_543" data-name="Line 543" x1="8.63" y1="17.29" x2="15.15" y2="23.8" fill="none" stroke="#8656e6" stroke-width="1.5"/><path id="Path_743" data-name="Path 743" d="M19,34.21a17.7,17.7,0,0,0,3.39,2.65L26,39,37.94,27.06,30,9.14a2,2,0,0,0-2.42-1.06h0a2,2,0,0,0-1.33,2.14l.85,6h0L17.86,7A2.31,2.31,0,0,0,14.6,7h0a2.3,2.3,0,0,0,0,3.25h0l.54.54L13.51,9.14a2.29,2.29,0,0,0-3.25,0h0a2.3,2.3,0,0,0,0,3.25h0L11.89,14l-.55-.55a2.29,2.29,0,0,0-3.25,0h0a2.31,2.31,0,0,0,0,3.26h0l2.71,2.71-.54-.54a2.31,2.31,0,0,0-3.26,0H7a2.29,2.29,0,0,0,0,3.25H7l4.89,4.88Z" fill="none" stroke="#8656e6" stroke-width="1.5"/><path id="Path_744" data-name="Path 744" d="M27.09,16.2l-.78,3.13a13.81,13.81,0,0,0,1.07,9.6c.15.3.31.58.48.87" fill="none" stroke="#8656e6" stroke-width="1.5"/></g><path id="Path_745" data-name="Path 745" d="M2.06,26h0a13.73,13.73,0,0,0,8.68,8.69h0" fill="none" stroke="#8656e6" stroke-width="1.5"/><path id="Path_746" data-name="Path 746" d="M35.77,9.69h0A13.73,13.73,0,0,0,27.09,1h0" fill="none" stroke="#8656e6" stroke-width="1.5"/></g></svg>